<svg width="16" height="16" viewBox="0 0 16 16" fill="none" xmlns="http://www.w3.org/2000/svg">
<path d="M12.9905 12.3824L15.1877 14.5225C15.2901 14.6259 15.3468 14.7643 15.3456 14.9081C15.3443 15.0518 15.2851 15.1893 15.1808 15.2909C15.0765 15.3926 14.9355 15.4502 14.788 15.4515C14.6405 15.4527 14.4984 15.3975 14.3923 15.2976L12.1952 13.1565C10.7594 14.3552 8.90296 14.9655 7.01542 14.8592C5.12789 14.7528 3.35598 13.9382 2.07151 12.5862C0.787038 11.2342 0.0898464 9.44986 0.126234 7.6077C0.162621 5.76554 0.929759 4.00871 2.26667 2.70587C3.60359 1.40302 5.40635 0.655434 7.29669 0.619974C9.18702 0.584514 11.018 1.26394 12.4053 2.51568C13.7927 3.76742 14.6287 5.49417 14.7378 7.3336C14.8469 9.17304 14.2207 10.9822 12.9905 12.3813V12.3824ZM7.43751 13.7748C9.07855 13.7748 10.6524 13.1395 11.8128 12.0087C12.9731 10.8779 13.625 9.34415 13.625 7.74493C13.625 6.14572 12.9731 4.612 11.8128 3.48118C10.6524 2.35037 9.07855 1.71508 7.43751 1.71508C5.79647 1.71508 4.22265 2.35037 3.06226 3.48118C1.90187 4.612 1.24998 6.14572 1.24998 7.74493C1.24998 9.34415 1.90187 10.8779 3.06226 12.0087C4.22265 13.1395 5.79647 13.7748 7.43751 13.7748Z" fill="#35393C"/>
</svg>
