<svg width="15" height="16" viewBox="0 0 15 16" fill="none" xmlns="http://www.w3.org/2000/svg">
<path d="M13.6573 1.22347L7.50078 7.22379L1.34428 1.22347C1.19621 1.09141 1.00157 1.02012 0.800905 1.02445C0.600241 1.02878 0.40903 1.10841 0.267105 1.24673C0.125179 1.38506 0.0434833 1.57142 0.0390371 1.76699C0.034591 1.96257 0.107737 2.15227 0.243237 2.29659L6.39661 8.2969L0.241675 14.2957C0.16648 14.3655 0.106369 14.4493 0.0648763 14.5421C0.0233836 14.635 0.00134614 14.7349 5.97664e-05 14.8361C-0.0012266 14.9374 0.0182641 15.0378 0.0573857 15.1316C0.0965073 15.2254 0.15447 15.3106 0.227868 15.3823C0.301266 15.4539 0.388616 15.5105 0.484786 15.5488C0.580955 15.587 0.684002 15.6062 0.78787 15.6051C0.891737 15.6039 0.994329 15.5826 1.08961 15.5423C1.1849 15.502 1.27096 15.4435 1.34272 15.3703L7.50078 9.37154L13.6573 15.3719C13.8054 15.5039 14 15.5752 14.2007 15.5709C14.4013 15.5665 14.5925 15.4869 14.7345 15.3486C14.8764 15.2103 14.9581 15.0239 14.9625 14.8283C14.967 14.6328 14.8938 14.4431 14.7583 14.2987L8.60183 8.29843L14.7583 2.29659C14.8335 2.22674 14.8936 2.14295 14.9351 2.05014C14.9766 1.95733 14.9987 1.85737 14.9999 1.75614C15.0012 1.65491 14.9817 1.55445 14.9426 1.46067C14.9035 1.36688 14.8455 1.28167 14.7721 1.21003C14.6987 1.13839 14.6114 1.08178 14.5152 1.04352C14.419 1.00526 14.316 0.986118 14.2121 0.987228C14.1083 0.988339 14.0057 1.00968 13.9104 1.04998C13.8151 1.09029 13.729 1.14876 13.6573 1.22195V1.22347Z" fill="#B6B3DE"/>
</svg>
