<svg width="16" height="17" viewBox="0 0 16 17" fill="none" xmlns="http://www.w3.org/2000/svg">
<path d="M4.91319 4.41714L14.4738 12.4465M4.91319 4.41714C5.11194 4.20313 5.2653 3.95293 5.36447 3.68094C5.46364 3.40896 5.50665 3.12055 5.49103 2.83231C5.47541 2.54407 5.40148 2.26168 5.27347 2.00138C5.14547 1.74108 4.96592 1.50802 4.74516 1.31558C4.52439 1.12315 4.26677 0.975151 3.9871 0.880093C3.70744 0.785034 3.41124 0.744795 3.11556 0.761689C2.81988 0.778582 2.53054 0.852276 2.26419 0.978531C1.99784 1.10479 1.75973 1.28111 1.56355 1.49737C1.17032 1.93084 0.969107 2.49835 1.00386 3.07593C1.0386 3.65352 1.30649 4.19423 1.749 4.57995C2.19152 4.96567 2.77268 5.16506 3.36556 5.13456C3.95843 5.10405 4.51482 4.84613 4.91319 4.41714V4.41714Z" stroke="#B6B3DE" stroke-width="1.5" stroke-linecap="round" stroke-linejoin="round"/>
<path d="M4.91319 11.7166L14.4738 3.68726M4.91319 11.7166C5.11194 11.9307 5.2653 12.1809 5.36447 12.4528C5.46364 12.7248 5.50665 13.0132 5.49103 13.3015C5.47541 13.5897 5.40148 13.8721 5.27347 14.1324C5.14547 14.3927 4.96592 14.6258 4.74516 14.8182C4.52439 15.0106 4.26677 15.1586 3.9871 15.2537C3.70744 15.3488 3.41124 15.389 3.11556 15.3721C2.81988 15.3552 2.53054 15.2815 2.26419 15.1553C1.99784 15.029 1.75973 14.8527 1.56355 14.6364C1.17032 14.203 0.969107 13.6354 1.00386 13.0579C1.0386 12.4803 1.30649 11.9396 1.749 11.5538C2.19152 11.1681 2.77268 10.9687 3.36556 10.9992C3.95843 11.0297 4.51482 11.2877 4.91319 11.7166V11.7166Z" stroke="#B6B3DE" stroke-width="1.5" stroke-linecap="round" stroke-linejoin="round"/>
</svg>
