<svg width="15" height="16" viewBox="0 0 15 16" fill="none" xmlns="http://www.w3.org/2000/svg">
<path d="M4.78393 15.4076H1.10893C0.814822 15.4076 0.532762 15.2937 0.324797 15.0911C0.116833 14.8884 0 14.6135 0 14.3269V1.87047C0 1.58386 0.116833 1.30898 0.324797 1.10632C0.532762 0.903651 0.814822 0.789795 1.10893 0.789795H4.78928C5.08246 0.791175 5.36314 0.90564 5.56995 1.10816C5.77676 1.31067 5.89286 1.58476 5.89285 1.87047V14.3269C5.89285 14.6135 5.77602 14.8884 5.56806 15.0911C5.36009 15.2937 5.07803 15.4076 4.78393 15.4076ZM4.82143 1.83392H1.07143V14.3635H4.82143V1.83392Z" fill="#B6B3DE"/>
<path d="M13.8911 15.4076H10.2161C9.922 15.4076 9.63994 15.2937 9.43198 15.0911C9.22401 14.8884 9.10718 14.6135 9.10718 14.3269V1.87047C9.10718 1.58386 9.22401 1.30898 9.43198 1.10632C9.63994 0.903651 9.922 0.789795 10.2161 0.789795H13.8965C14.1896 0.791175 14.4703 0.90564 14.6771 1.10816C14.8839 1.31067 15 1.58476 15 1.87047V14.3269C15 14.6135 14.8832 14.8884 14.6752 15.0911C14.4673 15.2937 14.1852 15.4076 13.8911 15.4076ZM13.9286 1.83392H10.1786V14.3635H13.9286V1.83392Z" fill="#B6B3DE"/>
</svg>
