<svg width="15" height="18" viewBox="0 0 15 18" fill="none" xmlns="http://www.w3.org/2000/svg">
<path d="M14.5117 8.48735L1.51095 0.946021C1.35919 0.857998 1.18622 0.810723 1.00962 0.809008C0.83303 0.807293 0.659123 0.851198 0.505598 0.936256C0.352073 1.02131 0.22441 1.14449 0.1356 1.29325C0.0467899 1.442 2.89829e-06 1.61103 0 1.78313V16.5641C0.000206158 16.7347 0.0463262 16.9022 0.133754 17.0499C0.221182 17.1977 0.346858 17.3205 0.498232 17.4061C0.649605 17.4917 0.821378 17.5372 0.996396 17.5378C1.17141 17.5385 1.34355 17.4944 1.49562 17.41L14.4963 10.1704C14.648 10.0859 14.7744 9.96418 14.8627 9.81729C14.9511 9.67039 14.9984 9.50349 15 9.33322C15.0015 9.16295 14.9572 8.99527 14.8715 8.84687C14.7859 8.69847 14.6618 8.57456 14.5116 8.48747L14.5117 8.48735ZM1.33288 16.0046V2.35433L13.339 9.31874L1.33288 16.0046Z" fill="#B6B3DE"/>
</svg>
