<svg width="15" height="16" viewBox="0 0 15 16" fill="none" xmlns="http://www.w3.org/2000/svg">
<path d="M8.22581 1.65641C8.22581 1.46882 8.14934 1.28891 8.01322 1.15626C7.87711 1.02362 7.6925 0.949097 7.5 0.949097C7.3075 0.949097 7.12289 1.02362 6.98678 1.15626C6.85066 1.28891 6.77419 1.46882 6.77419 1.65641V7.55068H0.725806C0.533311 7.55068 0.348699 7.6252 0.212584 7.75785C0.0764686 7.8905 0 8.0704 0 8.258C0 8.44559 0.0764686 8.62549 0.212584 8.75814C0.348699 8.89079 0.533311 8.96531 0.725806 8.96531H6.77419V14.8596C6.77419 15.0472 6.85066 15.2271 6.98678 15.3597C7.12289 15.4924 7.3075 15.5669 7.5 15.5669C7.6925 15.5669 7.87711 15.4924 8.01322 15.3597C8.14934 15.2271 8.22581 15.0472 8.22581 14.8596V8.96531H14.2742C14.4667 8.96531 14.6513 8.89079 14.7874 8.75814C14.9235 8.62549 15 8.44559 15 8.258C15 8.0704 14.9235 7.8905 14.7874 7.75785C14.6513 7.6252 14.4667 7.55068 14.2742 7.55068H8.22581V1.65641Z" fill="#B6B3DE"/>
</svg>
