<svg width="15" height="14" viewBox="0 0 15 14" fill="none" xmlns="http://www.w3.org/2000/svg">
<path d="M9.99053 10.3187C9.88852 10.32 9.78888 10.2887 9.70685 10.2296C9.62482 10.1705 9.56493 10.0868 9.53634 9.9914C9.50776 9.89596 9.51205 9.79403 9.54857 9.7012C9.58509 9.60837 9.65182 9.52975 9.73854 9.4774C10.1632 9.21912 10.5119 8.85806 10.7508 8.4294C10.9896 8.00074 11.1105 7.51909 11.1016 7.03139C11.0926 6.54368 10.9542 6.06654 10.6998 5.64645C10.4454 5.22637 10.0837 4.87766 9.64988 4.63431C9.59411 4.60588 9.54482 4.56675 9.50498 4.51928C9.46513 4.4718 9.43555 4.41697 9.41801 4.35806C9.40048 4.29916 9.39535 4.23741 9.40294 4.17653C9.41053 4.11564 9.43068 4.05688 9.46217 4.00378C9.49367 3.95069 9.53586 3.90434 9.58621 3.86755C9.63656 3.83075 9.69403 3.80426 9.75516 3.78967C9.81629 3.77508 9.87982 3.77269 9.94192 3.78264C10.004 3.79259 10.0634 3.81469 10.1165 3.84759C10.6877 4.17032 11.1635 4.63141 11.498 5.18613C11.8324 5.74085 12.0141 6.37038 12.0253 7.01366C12.0366 7.65695 11.8771 8.29215 11.5623 8.85767C11.2475 9.42319 10.788 9.89984 10.2285 10.2414C10.1579 10.2878 10.0756 10.3146 9.99053 10.3187Z" fill="#B6B3DE"/>
<path d="M11.0218 13.0151C10.9173 13.0145 10.8161 12.9798 10.7343 12.9164C10.6524 12.853 10.5948 12.7648 10.5706 12.6657C10.5464 12.5667 10.557 12.4625 10.6008 12.3701C10.6445 12.2776 10.7188 12.2021 10.8118 12.1557C11.7907 11.6856 12.6138 10.9562 13.1867 10.0511C13.7596 9.14593 14.0591 8.10176 14.0508 7.03833C14.0425 5.97489 13.7268 4.93527 13.1399 4.03872C12.553 3.14217 11.7186 2.425 10.7325 1.96949C10.6756 1.94457 10.6244 1.90879 10.582 1.86427C10.5395 1.81974 10.5066 1.76737 10.4853 1.71026C10.464 1.65314 10.4546 1.59244 10.4577 1.53173C10.4609 1.47103 10.4765 1.41155 10.5037 1.35683C10.5308 1.3021 10.5689 1.25323 10.6158 1.21311C10.6626 1.17299 10.7173 1.14243 10.7764 1.12324C10.8356 1.10405 10.8982 1.09661 10.9603 1.10137C11.0225 1.10613 11.0831 1.12299 11.1385 1.15096C12.2839 1.67792 13.2537 2.50883 13.9366 3.54838C14.6196 4.58794 14.988 5.79404 14.9997 7.02834C15.0114 8.26265 14.6659 9.47517 14.0027 10.5268C13.3396 11.5785 12.3857 12.4267 11.2505 12.9742C11.179 13.0064 11.1003 13.0205 11.0218 13.0151Z" fill="#B6B3DE"/>
<path d="M7.46602 13.4154C7.34287 13.4155 7.22092 13.3918 7.1072 13.3458C6.99348 13.2997 6.89023 13.2322 6.80341 13.1471L3.33171 9.75019H0.933253C0.685739 9.75019 0.448362 9.65437 0.273343 9.48381C0.0983245 9.31325 0 9.08192 0 8.84071V5.20278C0 4.96157 0.0983245 4.73024 0.273343 4.55967C0.448362 4.38911 0.685739 4.29329 0.933253 4.29329H3.36904L6.78941 0.932755C6.91829 0.800545 7.08497 0.709142 7.26782 0.67041C7.45067 0.631679 7.64124 0.647407 7.8148 0.715554C7.98836 0.7837 8.1369 0.901118 8.24112 1.05257C8.34535 1.20401 8.40045 1.3825 8.39927 1.56485V12.4786C8.39928 12.659 8.34427 12.8352 8.24124 12.985C8.13822 13.1348 7.99182 13.2514 7.82066 13.3199C7.71012 13.3744 7.58956 13.4068 7.46602 13.4154ZM0.933253 5.20278V8.84071H3.52769C3.58943 8.84096 3.65051 8.85314 3.70738 8.87656C3.76425 8.89998 3.81578 8.93416 3.859 8.97713L7.46602 12.5059V1.56485L3.89633 5.06635C3.85311 5.10932 3.80158 5.1435 3.74471 5.16692C3.68784 5.19034 3.62676 5.20253 3.56503 5.20278H0.933253Z" fill="#B6B3DE"/>
</svg>
