<svg width="17" height="17" viewBox="0 0 17 17" fill="none" xmlns="http://www.w3.org/2000/svg">
<path d="M14.5 6.65125H7.75C6.92157 6.65125 6.25 7.30571 6.25 8.11303V14.691C6.25 15.4984 6.92157 16.1528 7.75 16.1528H14.5C15.3284 16.1528 16 15.4984 16 14.691V8.11303C16 7.30571 15.3284 6.65125 14.5 6.65125Z" stroke="#B6B3DE" stroke-width="1.5" stroke-linecap="round" stroke-linejoin="round"/>
<path d="M3.25 11.0366H2.5C2.10218 11.0366 1.72064 10.8826 1.43934 10.6085C1.15804 10.3343 1 9.96253 1 9.57484V2.99682C1 2.60913 1.15804 2.23732 1.43934 1.96318C1.72064 1.68904 2.10218 1.53503 2.5 1.53503H9.25C9.64782 1.53503 10.0294 1.68904 10.3107 1.96318C10.592 2.23732 10.75 2.60913 10.75 2.99682V3.72771" stroke="#B6B3DE" stroke-width="1.5" stroke-linecap="round" stroke-linejoin="round"/>
</svg>
