<svg width="15" height="11" viewBox="0 0 15 11" fill="none" xmlns="http://www.w3.org/2000/svg">
<path d="M1.21663 5.93994V5.9436C1.19555 6.02106 1.15901 6.09371 1.1091 6.1574C1.0592 6.22109 0.996896 6.27457 0.925765 6.31478C0.854634 6.35499 0.776067 6.38114 0.694558 6.39174C0.613048 6.40234 0.530194 6.39717 0.450733 6.37655C-0.0886457 6.23752 0.00646517 5.63139 0.00646517 5.63139L0.0277399 5.55578C0.0277399 5.55578 0.0602781 5.45333 0.0865587 5.37894C0.407709 4.50144 0.880483 3.68393 1.48444 2.96176C2.6095 1.62755 4.49795 0.299438 7.49395 0.299438C10.4912 0.299438 12.3796 1.62755 13.5022 2.96176C14.1062 3.68393 14.5789 4.50144 14.9001 5.37894C14.9271 5.45434 14.9521 5.53038 14.9752 5.607L14.9789 5.62285L14.9814 5.62773V5.63017C15.0211 5.78538 14.9966 5.94958 14.9133 6.08736C14.8299 6.22515 14.6943 6.3255 14.5357 6.36677C14.3771 6.40805 14.2083 6.38694 14.0655 6.30802C13.9227 6.22909 13.8175 6.09865 13.7725 5.94482L13.7713 5.93994L13.7613 5.90945C13.6902 5.69361 13.6067 5.48187 13.511 5.27528C13.2558 4.72259 12.9277 4.20476 12.5348 3.73496C11.605 2.63125 10.0519 1.51901 7.49395 1.51901C4.93596 1.51901 3.38165 2.63125 2.45307 3.73496C1.94312 4.34534 1.54323 5.03567 1.27044 5.77652C1.25498 5.82056 1.24037 5.86488 1.22664 5.90945L1.21663 5.93994Z" fill="#B6B3DE"/>
<path d="M7.49408 3.95801C6.66432 3.95801 5.86855 4.27924 5.28182 4.85104C4.6951 5.42284 4.36548 6.19837 4.36548 7.00702C4.36548 7.81567 4.6951 8.5912 5.28182 9.163C5.86855 9.7348 6.66432 10.056 7.49408 10.056C8.32384 10.056 9.11961 9.7348 9.70633 9.163C10.2931 8.5912 10.6227 7.81567 10.6227 7.00702C10.6227 6.19837 10.2931 5.42284 9.70633 4.85104C9.11961 4.27924 8.32384 3.95801 7.49408 3.95801ZM5.61692 7.00702C5.61692 6.52183 5.81469 6.05651 6.16673 5.71343C6.51876 5.37035 6.99623 5.17761 7.49408 5.17761C7.99193 5.17761 8.4694 5.37035 8.82143 5.71343C9.17347 6.05651 9.37124 6.52183 9.37124 7.00702C9.37124 7.49221 9.17347 7.95752 8.82143 8.30061C8.4694 8.64369 7.99193 8.83643 7.49408 8.83643C6.99623 8.83643 6.51876 8.64369 6.16673 8.30061C5.81469 7.95752 5.61692 7.49221 5.61692 7.00702Z" fill="#B6B3DE"/>
</svg>
