<svg width="43" height="43" viewBox="0 0 43 43" fill="none" xmlns="http://www.w3.org/2000/svg">
<path d="M10.3139 9.34248L11.1941 5.05194C11.3734 4.17773 11.8581 3.3911 12.5656 2.82599C13.2732 2.26088 14.1598 1.95222 15.0747 1.95258H28.3659C29.2807 1.95222 30.1674 2.26088 30.8749 2.82599C31.5825 3.3911 32.0671 4.17773 32.2464 5.05194L33.1266 9.34248C33.2648 10.0148 33.5959 10.635 34.0815 11.1311C34.5671 11.6273 35.1873 11.9788 35.8699 12.145C37.4779 12.537 38.9053 13.4416 39.9252 14.7149C40.9451 15.9882 41.499 17.5572 41.4989 19.1726V32.792C41.4989 34.8368 40.6654 36.7979 39.1817 38.2437C37.698 39.6896 35.6857 40.5019 33.5874 40.5019H9.8531C7.75485 40.5019 5.74254 39.6896 4.25886 38.2437C2.77518 36.7979 1.94165 34.8368 1.94165 32.792V19.1726C1.9415 17.5572 2.4954 15.9882 3.51532 14.7149C4.53524 13.4416 5.96265 12.537 7.57065 12.145C8.25323 11.9788 8.87339 11.6273 9.35901 11.1311C9.84464 10.635 10.1758 10.0148 10.3139 9.34248V9.34248Z" stroke="white" stroke-width="3" stroke-linecap="round" stroke-linejoin="round"/>
<path d="M21.7202 32.792C26.0896 32.792 29.6316 29.3402 29.6316 25.0821C29.6316 20.824 26.0896 17.3722 21.7202 17.3722C17.3508 17.3722 13.8088 20.824 13.8088 25.0821C13.8088 29.3402 17.3508 32.792 21.7202 32.792Z" stroke="white" stroke-width="3" stroke-linecap="round" stroke-linejoin="round"/>
<path d="M19.7423 9.66284H23.698" stroke="white" stroke-width="3" stroke-linecap="round" stroke-linejoin="round"/>
</svg>
