<svg width="40" height="39" viewBox="0 0 40 39" fill="none" xmlns="http://www.w3.org/2000/svg">
<path d="M23.9114 11.6856C23.9114 11.3448 23.7725 11.018 23.5252 10.777C23.278 10.536 22.9426 10.4006 22.5929 10.4006C22.2432 10.4006 21.9078 10.536 21.6605 10.777C21.4132 11.018 21.2743 11.3448 21.2743 11.6856V15.5405H17.3186C16.9689 15.5405 16.6335 15.6759 16.3862 15.9169C16.1389 16.1579 16 16.4847 16 16.8255C16 17.1663 16.1389 17.4932 16.3862 17.7341C16.6335 17.9751 16.9689 18.1105 17.3186 18.1105H21.2743V21.9654C21.2743 22.3062 21.4132 22.6331 21.6605 22.8741C21.9078 23.115 22.2432 23.2504 22.5929 23.2504C22.9426 23.2504 23.278 23.115 23.5252 22.8741C23.7725 22.6331 23.9114 22.3062 23.9114 21.9654V18.1105H27.8672C28.2169 18.1105 28.5523 17.9751 28.7995 17.7341C29.0468 17.4932 29.1857 17.1663 29.1857 16.8255C29.1857 16.4847 29.0468 16.1579 28.7995 15.9169C28.5523 15.6759 28.2169 15.5405 27.8672 15.5405H23.9114V11.6856Z" fill="white"/>
<path d="M1.49558 0.120911C1.14587 0.120911 0.810484 0.256291 0.563204 0.497269C0.315923 0.738247 0.177002 1.06508 0.177002 1.40588C0.177002 1.74667 0.315923 2.07351 0.563204 2.31449C0.810484 2.55547 1.14587 2.69085 1.49558 2.69085H4.42281L5.48031 6.82073L9.43076 27.3417C9.48732 27.6361 9.64768 27.9021 9.88411 28.0935C10.1205 28.285 10.4182 28.3899 10.7256 28.3902H13.3627C11.9639 28.3902 10.6224 28.9317 9.63326 29.8956C8.64413 30.8596 8.08845 32.1669 8.08845 33.5301C8.08845 34.8933 8.64413 36.2006 9.63326 37.1645C10.6224 38.1284 11.9639 38.67 13.3627 38.67C14.7616 38.67 16.1031 38.1284 17.0922 37.1645C18.0814 36.2006 18.637 34.8933 18.637 33.5301C18.637 32.1669 18.0814 30.8596 17.0922 29.8956C16.1031 28.9317 14.7616 28.3902 13.3627 28.3902H31.8228C30.424 28.3902 29.0824 28.9317 28.0933 29.8956C27.1042 30.8596 26.5485 32.1669 26.5485 33.5301C26.5485 34.8933 27.1042 36.2006 28.0933 37.1645C29.0824 38.1284 30.424 38.67 31.8228 38.67C33.2216 38.67 34.5632 38.1284 35.5523 37.1645C36.5414 36.2006 37.0971 34.8933 37.0971 33.5301C37.0971 32.1669 36.5414 30.8596 35.5523 29.8956C34.5632 28.9317 33.2216 28.3902 31.8228 28.3902H34.4599C34.7674 28.3899 35.065 28.285 35.3014 28.0935C35.5379 27.9021 35.6982 27.6361 35.7548 27.3417L39.7105 6.78219C39.7461 6.59673 39.7394 6.40591 39.6908 6.22327C39.6422 6.04063 39.553 5.87066 39.4294 5.72544C39.3058 5.58021 39.1509 5.46329 38.9757 5.38299C38.8005 5.30268 38.6093 5.26096 38.4157 5.26078H7.79836L6.73032 1.09492C6.65914 0.816808 6.49459 0.569875 6.26283 0.393387C6.03108 0.2169 5.74543 0.12099 5.4513 0.120911H1.49558ZM11.82 25.8203L8.35744 7.83072H36.8281L33.3655 25.8203H11.82V25.8203ZM15.9999 33.5301C15.9999 34.2117 15.7221 34.8653 15.2275 35.3473C14.7329 35.8293 14.0622 36.1 13.3627 36.1C12.6633 36.1 11.9926 35.8293 11.498 35.3473C11.0034 34.8653 10.7256 34.2117 10.7256 33.5301C10.7256 32.8485 11.0034 32.1948 11.498 31.7129C11.9926 31.2309 12.6633 30.9601 13.3627 30.9601C14.0622 30.9601 14.7329 31.2309 15.2275 31.7129C15.7221 32.1948 15.9999 32.8485 15.9999 33.5301V33.5301ZM34.4599 33.5301C34.4599 34.2117 34.1821 34.8653 33.6875 35.3473C33.193 35.8293 32.5222 36.1 31.8228 36.1C31.1234 36.1 30.4526 35.8293 29.9581 35.3473C29.4635 34.8653 29.1856 34.2117 29.1856 33.5301C29.1856 32.8485 29.4635 32.1948 29.9581 31.7129C30.4526 31.2309 31.1234 30.9601 31.8228 30.9601C32.5222 30.9601 33.193 31.2309 33.6875 31.7129C34.1821 32.1948 34.4599 32.8485 34.4599 33.5301V33.5301Z" fill="white"/>
</svg>
