<svg width="45" height="33" viewBox="0 0 45 33" fill="none" xmlns="http://www.w3.org/2000/svg">
<path d="M12.2045 28.4563L31.6982 1.22042C31.8096 1.05412 31.9541 0.911401 32.123 0.800725C32.292 0.690049 32.4819 0.613668 32.6816 0.576112C32.8812 0.538556 33.0866 0.540587 33.2854 0.582087C33.4843 0.623587 33.6726 0.70371 33.8391 0.817707C34.0057 0.931703 34.1472 1.07725 34.2553 1.24573C34.3633 1.4142 34.4356 1.60217 34.468 1.79849C34.5003 1.99481 34.4921 2.19549 34.4436 2.38863C34.3952 2.58176 34.3077 2.76343 34.1861 2.92285L13.7933 31.4155C13.6767 31.5791 13.5276 31.7179 13.355 31.8239C13.1823 31.9299 12.9896 32.0008 12.7883 32.0324C12.5871 32.064 12.3814 32.0557 12.1835 32.0079C11.9856 31.9601 11.7996 31.8738 11.6365 31.7543L0.700342 23.7323C0.54077 23.6153 0.406332 23.4686 0.304706 23.3008C0.203079 23.1329 0.136254 22.9471 0.108045 22.754C0.0510754 22.3639 0.154858 21.9678 0.396561 21.6526C0.638264 21.3374 0.99809 21.129 1.39688 21.0733C1.79567 21.0176 2.20076 21.1191 2.52303 21.3555L12.2045 28.4563V28.4563ZM33.8125 14.2635C33.4096 14.2635 33.0233 14.107 32.7385 13.8284C32.4536 13.5498 32.2936 13.1719 32.2936 12.7779C32.2936 12.3839 32.4536 12.0061 32.7385 11.7275C33.0233 11.4489 33.4096 11.2924 33.8125 11.2924H42.9259C43.3288 11.2924 43.7151 11.4489 43.9999 11.7275C44.2848 12.0061 44.4448 12.3839 44.4448 12.7779C44.4448 13.1719 44.2848 13.5498 43.9999 13.8284C43.7151 14.107 43.3288 14.2635 42.9259 14.2635H33.8125ZM27.7369 23.1767C27.334 23.1767 26.9477 23.0202 26.6628 22.7416C26.378 22.463 26.218 22.0852 26.218 21.6912C26.218 21.2972 26.378 20.9193 26.6628 20.6408C26.9477 20.3622 27.334 20.2056 27.7369 20.2056H42.9229C43.3257 20.2056 43.7121 20.3622 43.9969 20.6408C44.2818 20.9193 44.4418 21.2972 44.4418 21.6912C44.4418 22.0852 44.2818 22.463 43.9969 22.7416C43.7121 23.0202 43.3257 23.1767 42.9229 23.1767H27.7369ZM21.6612 32.09C21.2584 32.09 20.8721 31.9335 20.5872 31.6549C20.3024 31.3763 20.1423 30.9984 20.1423 30.6044C20.1423 30.2105 20.3024 29.8326 20.5872 29.554C20.8721 29.2754 21.2584 29.1189 21.6612 29.1189H42.9229C43.3257 29.1189 43.7121 29.2754 43.9969 29.554C44.2818 29.8326 44.4418 30.2105 44.4418 30.6044C44.4418 30.9984 44.2818 31.3763 43.9969 31.6549C43.7121 31.9335 43.3257 32.09 42.9229 32.09H21.6612Z" fill="white"/>
</svg>
