<svg width="38" height="40" viewBox="0 0 38 40" fill="none" xmlns="http://www.w3.org/2000/svg">
<path d="M24.9362 28.2411C23.8659 28.2651 22.7959 28.1811 21.7434 27.9905C20.8279 29.0369 19.4829 29.6206 17.5277 29.6206C14.9932 29.6206 13.4815 28.6404 12.6113 26.9387C12.2972 26.3144 12.0801 25.6481 11.9671 24.9617C11.9155 24.6815 11.8853 24.3981 11.8766 24.1136C11.8766 23.7484 11.7278 23.3982 11.4629 23.1401C11.1979 22.8819 10.8386 22.7368 10.4639 22.7368H3.4001V13.0995C3.4001 12.0041 3.84663 10.9535 4.64146 10.1789C5.43629 9.40434 6.51432 8.96919 7.63838 8.96919H9.63601C9.91574 8.00821 10.2859 7.08853 10.7464 6.21567H7.63838C5.76494 6.21567 3.96824 6.94092 2.64352 8.23189C1.3188 9.52285 0.574585 11.2738 0.574585 13.0995V32.3741C0.574585 34.1998 1.3188 35.9508 2.64352 37.2417C3.96824 38.5327 5.76494 39.258 7.63838 39.258H27.417C29.2904 39.258 31.0871 38.5327 32.4118 37.2417C33.7366 35.9508 34.4808 34.1998 34.4808 32.3741V24.7827C33.6092 25.4839 32.6617 26.0905 31.6553 26.5917V32.3741C31.6553 33.4696 31.2087 34.5201 30.4139 35.2947C29.6191 36.0693 28.541 36.5044 27.417 36.5044H7.63838C6.51432 36.5044 5.43629 36.0693 4.64146 35.2947C3.84663 34.5201 3.4001 33.4696 3.4001 32.3741V25.4903H9.17546L9.27435 25.9694C9.4354 26.6633 9.69535 27.4123 10.0824 28.1723C11.4189 30.7743 13.8828 32.3741 17.5277 32.3741C21.1415 32.3741 23.5941 30.8019 24.9362 28.2411ZM24.5915 25.4903C27.9637 25.4903 31.1977 24.1849 33.5822 21.8611C35.9667 19.5374 37.3063 16.3857 37.3063 13.0995C37.3063 9.81322 35.9667 6.66155 33.5822 4.33782C31.1977 2.01408 27.9637 0.708618 24.5915 0.708618C21.2193 0.708618 17.9852 2.01408 15.6007 4.33782C13.2162 6.66155 11.8766 9.81322 11.8766 13.0995C11.8766 16.3857 13.2162 19.5374 15.6007 21.8611C17.9852 24.1849 21.2193 25.4903 24.5915 25.4903V25.4903ZM17.9402 14.0742C17.6749 13.8157 17.5259 13.4651 17.5259 13.0995C17.5259 12.7339 17.6749 12.3832 17.9402 12.1247C18.2055 11.8662 18.5653 11.721 18.9404 11.721C19.3156 11.721 19.6754 11.8662 19.9407 12.1247L23.1787 15.283V7.59243C23.1787 7.22729 23.3276 6.8771 23.5925 6.61891C23.8574 6.36072 24.2168 6.21567 24.5915 6.21567C24.9662 6.21567 25.3255 6.36072 25.5904 6.61891C25.8554 6.8771 26.0042 7.22729 26.0042 7.59243V15.283L29.2423 12.1247C29.5076 11.8662 29.8673 11.721 30.2425 11.721C30.6177 11.721 30.9775 11.8662 31.2427 12.1247C31.508 12.3832 31.657 12.7339 31.657 13.0995C31.657 13.4651 31.508 13.8157 31.2427 14.0742L25.5917 19.5813C25.3285 19.8376 24.972 19.9821 24.6 19.9833H24.583C24.2146 19.9816 23.8616 19.8393 23.5997 19.5868L23.5912 19.5785L17.9402 14.0715V14.0742Z" fill="white"/>
</svg>
