<svg width="41" height="40" viewBox="0 0 41 40" fill="none" xmlns="http://www.w3.org/2000/svg">
<path d="M6.25138 0.673401C4.80883 0.673401 3.42537 1.23185 2.40534 2.22588C1.3853 3.21992 0.812256 4.56813 0.812256 5.97391V30.0671C0.812256 31.4729 1.3853 32.8211 2.40534 33.8151C3.42537 34.8092 4.80883 35.3676 6.25138 35.3676H18.6565C18.0637 34.4665 17.5924 33.4948 17.2542 32.4764H6.25138C4.88665 32.4764 3.77905 31.3971 3.77905 30.0671V5.97391C3.77905 4.64396 4.88665 3.56459 6.25138 3.56459H30.9747C32.3394 3.56459 33.447 4.64396 33.447 5.97391V16.6964C34.492 17.0259 35.4891 17.4852 36.4138 18.0629V5.97391C36.4138 4.56813 35.8407 3.21992 34.8207 2.22588C33.8007 1.23185 32.4172 0.673401 30.9747 0.673401H6.25138Z" fill="white"/>
<path d="M30.3953 16.124C30.4803 15.9051 30.5094 15.6693 30.4801 15.437C30.4508 15.2047 30.364 14.9829 30.2272 14.7905C30.0904 14.5982 29.9076 14.4412 29.6947 14.333C29.4818 14.2248 29.245 14.1686 29.0049 14.1694H19.1077C18.7142 14.1694 18.3369 14.3217 18.0587 14.5928C17.7806 14.8639 17.6243 15.2317 17.6243 15.6151C17.6243 15.9985 17.7806 16.3662 18.0587 16.6373C18.3369 16.9085 18.7142 17.0608 19.1077 17.0608H24.531C26.3835 16.3051 28.3922 15.9842 30.3953 16.124V16.124Z" fill="white"/>
<path d="M11.196 11.2783C10.0158 11.2783 8.88385 11.7352 8.04928 12.5485C7.21471 13.3618 6.74585 14.4649 6.74585 15.6151C6.74585 16.7653 7.21471 17.8684 8.04928 18.6817C8.88385 19.495 10.0158 19.9519 11.196 19.9519C12.3763 19.9519 13.5082 19.495 14.3428 18.6817C15.1774 17.8684 15.6462 16.7653 15.6462 15.6151C15.6462 14.4649 15.1774 13.3618 14.3428 12.5485C13.5082 11.7352 12.3763 11.2783 11.196 11.2783ZM9.71264 15.6151C9.71264 15.2317 9.86892 14.864 10.1471 14.5929C10.4253 14.3218 10.8026 14.1695 11.196 14.1695C11.5895 14.1695 11.9668 14.3218 12.2449 14.5929C12.5231 14.864 12.6794 15.2317 12.6794 15.6151C12.6794 15.9985 12.5231 16.3662 12.2449 16.6373C11.9668 16.9084 11.5895 17.0607 11.196 17.0607C10.8026 17.0607 10.4253 16.9084 10.1471 16.6373C9.86892 16.3662 9.71264 15.9985 9.71264 15.6151Z" fill="white"/>
<path d="M6.74585 26.2122C6.74585 25.6427 6.86096 25.0787 7.0846 24.5526C7.30824 24.0264 7.63604 23.5484 8.04928 23.1457C8.46252 22.743 8.9531 22.4235 9.49302 22.2056C10.0329 21.9877 10.6116 21.8755 11.196 21.8755C11.7804 21.8755 12.3591 21.9877 12.899 22.2056C13.439 22.4235 13.9295 22.743 14.3428 23.1457C14.756 23.5484 15.0838 24.0264 15.3075 24.5526C15.5311 25.0787 15.6462 25.6427 15.6462 26.2122C15.6462 27.3623 15.1774 28.4654 14.3428 29.2786C13.5082 30.0919 12.3763 30.5488 11.196 30.5488C10.0158 30.5488 8.88385 30.0919 8.04928 29.2786C7.21471 28.4654 6.74585 27.3623 6.74585 26.2122V26.2122ZM11.196 24.7666C10.8026 24.7666 10.4253 24.9189 10.1471 25.19C9.86892 25.4611 9.71264 25.8288 9.71264 26.2122C9.71264 26.5955 9.86892 26.9632 10.1471 27.2343C10.4253 27.5054 10.8026 27.6577 11.196 27.6577C11.5895 27.6577 11.9668 27.5054 12.2449 27.2343C12.5231 26.9632 12.6794 26.5955 12.6794 26.2122C12.6794 25.8288 12.5231 25.4611 12.2449 25.19C11.9668 24.9189 11.5895 24.7666 11.196 24.7666Z" fill="white"/>
<path d="M29.005 9.34674H8.23742C7.844 9.34674 7.4667 9.19444 7.1885 8.92335C6.91031 8.65225 6.75403 8.28457 6.75403 7.90118C6.75403 7.5178 6.91031 7.15012 7.1885 6.87902C7.4667 6.60793 7.844 6.45563 8.23742 6.45563H29.005C29.3984 6.45563 29.7757 6.60793 30.0539 6.87902C30.3321 7.15012 30.4884 7.5178 30.4884 7.90118C30.4884 8.28457 30.3321 8.65225 30.0539 8.92335C29.7757 9.19444 29.3984 9.34674 29.005 9.34674V9.34674Z" fill="white"/>
<path d="M40.3694 28.6213C40.3694 25.8097 39.2233 23.1133 37.1833 21.1252C35.1432 19.137 32.3763 18.0201 29.4912 18.0201C26.6061 18.0201 23.8391 19.137 21.7991 21.1252C19.759 23.1133 18.6129 25.8097 18.6129 28.6213C18.6129 31.4329 19.759 34.1294 21.7991 36.1175C23.8391 38.1056 26.6061 39.2225 29.4912 39.2225C32.3763 39.2225 35.1432 38.1056 37.1833 36.1175C39.2233 34.1294 40.3694 31.4329 40.3694 28.6213ZM30.4821 34.4096C30.4821 34.6652 30.3779 34.9103 30.1924 35.091C30.007 35.2718 29.7554 35.3733 29.4931 35.3733C29.2309 35.3733 28.9793 35.2718 28.7939 35.091C28.6084 34.9103 28.5042 34.6652 28.5042 34.4096V29.5851H23.5497C23.2874 29.5851 23.0358 29.4835 22.8504 29.3028C22.6649 29.1221 22.5607 28.8769 22.5607 28.6213C22.5607 28.3657 22.6649 28.1206 22.8504 27.9399C23.0358 27.7591 23.2874 27.6576 23.5497 27.6576H28.5022V22.8389C28.5022 22.5833 28.6064 22.3381 28.7919 22.1574C28.9773 21.9767 29.2289 21.8751 29.4912 21.8751C29.7535 21.8751 30.005 21.9767 30.1905 22.1574C30.3759 22.3381 30.4801 22.5833 30.4801 22.8389V27.6576H35.4307C35.693 27.6576 35.9445 27.7591 36.13 27.9399C36.3154 28.1206 36.4196 28.3657 36.4196 28.6213C36.4196 28.8769 36.3154 29.1221 36.13 29.3028C35.9445 29.4835 35.693 29.5851 35.4307 29.5851H30.4821V34.4096Z" fill="white"/>
</svg>
