<svg width="35" height="39" viewBox="0 0 35 39" fill="none" xmlns="http://www.w3.org/2000/svg">
<path d="M33.0722 15.6649C32.6487 14.6834 32.1309 13.7438 31.5259 12.8589L28.2767 15.0155C29.2131 16.3844 29.87 17.9193 30.2109 19.5348C30.5583 21.2187 30.5583 22.9541 30.2109 24.6381C30.0407 25.4515 29.7886 26.2462 29.4584 27.0105C29.1374 27.7614 28.7415 28.4793 28.2767 29.1535C27.3478 30.5007 26.1666 31.6616 24.7961 32.5743C23.4052 33.4948 21.8458 34.1408 20.2044 34.4765C18.4929 34.8137 16.7304 34.8137 15.0189 34.4765C12.5557 33.9788 10.2953 32.7806 8.51844 31.0306C7.34474 29.8757 6.40794 28.5096 5.75912 27.0066C5.43174 26.2423 5.18101 25.4484 5.01049 24.6361C4.49316 22.128 4.75397 19.5249 5.75912 17.1643C6.40545 15.6616 7.34184 14.2964 8.51648 13.1441C9.6906 11.9919 11.0783 11.0714 12.6045 10.4326C13.3786 10.1107 14.1919 9.8621 15.015 9.69636C15.2247 9.65396 15.4383 9.63469 15.65 9.60192V15.4626L25.4487 7.75372L15.65 0.0448608V5.70702C15.1736 5.75889 14.6995 5.83026 14.2292 5.92094C12.0816 6.35371 10.0418 7.19852 8.22644 8.40705C5.00164 10.5463 2.6324 13.7205 1.52359 17.3871C0.414782 21.0538 0.635243 24.9853 2.14729 28.5098C2.98909 30.4722 4.21042 32.2551 5.74344 33.7596C7.27438 35.2622 9.08471 36.4615 11.0759 37.2922C14.2063 38.5946 17.6655 38.93 20.9942 38.2538C23.6588 37.7123 26.1498 36.5426 28.2533 34.8453C30.3568 33.1481 32.0097 30.974 33.0702 28.5098C33.5013 27.5077 33.8325 26.4651 34.0501 25.4109C34.5045 23.2171 34.5045 20.9558 34.0501 18.762C33.8268 17.7009 33.4993 16.6637 33.0722 15.6649V15.6649Z" fill="white"/>
</svg>
