<svg width="40" height="37" viewBox="0 0 40 37" fill="none" xmlns="http://www.w3.org/2000/svg">
<path d="M20.1178 6.05652L22.819 11.1547L28.5943 11.9725L24.356 15.6939L25.7688 21.201L20.1178 18.1033L14.4667 21.201L15.8795 15.6939L11.6412 11.9725L17.5748 11.1547L20.1178 6.05652Z" fill="white"/>
<path d="M22.5703 36.3454L20.1177 34.9687L25.7688 25.3313H34.2453C34.6165 25.3318 34.9842 25.261 35.3272 25.1228C35.6703 24.9846 35.982 24.7818 36.2445 24.526C36.507 24.2702 36.7151 23.9664 36.8569 23.6321C36.9987 23.2978 37.0714 22.9395 37.0708 22.5777V6.05646C37.0714 5.69471 36.9987 5.33641 36.8569 5.00209C36.7151 4.66777 36.507 4.364 36.2445 4.1082C35.982 3.8524 35.6703 3.6496 35.3272 3.51141C34.9842 3.37323 34.6165 3.30238 34.2453 3.30292H5.99014C5.61894 3.30238 5.25127 3.37323 4.90821 3.51141C4.56515 3.6496 4.25344 3.8524 3.99096 4.1082C3.72847 4.364 3.52037 4.66777 3.37857 5.00209C3.23677 5.33641 3.16407 5.69471 3.16463 6.05646V22.5777C3.16407 22.9395 3.23677 23.2978 3.37857 23.6321C3.52037 23.9664 3.72847 24.2702 3.99096 24.526C4.25344 24.7818 4.56515 24.9846 4.90821 25.1228C5.25127 25.261 5.61894 25.3318 5.99014 25.3313H18.705V28.0848H5.99014C4.4914 28.0848 3.05404 27.5046 1.99426 26.4718C0.934487 25.439 0.339112 24.0383 0.339112 22.5777V6.05646C0.338926 5.33321 0.484967 4.61701 0.768893 3.94878C1.05282 3.28055 1.46906 2.67338 1.99385 2.16196C2.51863 1.65055 3.14167 1.2449 3.82737 0.968212C4.51307 0.691519 5.24799 0.549197 5.99014 0.549378H34.2453C34.9875 0.549197 35.7224 0.691519 36.4081 0.968212C37.0938 1.2449 37.7168 1.65055 38.2416 2.16196C38.7664 2.67338 39.1826 3.28055 39.4666 3.94878C39.7505 4.61701 39.8965 5.33321 39.8963 6.05646V22.5777C39.8963 24.0383 39.301 25.439 38.2412 26.4718C37.1814 27.5046 35.7441 28.0848 34.2453 28.0848H27.4146L22.5703 36.3454Z" fill="white"/>
</svg>
